<svg width="228" height="48" viewBox="0 0 228 48" fill="none" xmlns="http://www.w3.org/2000/svg">
    <path d="M22.5514 0.00330147C22.2905 0.623371 22.5713 1.01851 22.864 1.60032C23.2857 2.43676 23.7188 3.26523 24.1882 4.07594C26.3966 7.86411 29.102 11.3421 32.233 14.418C30.385 13.9028 28.4933 13.503 26.6255 13.065C23.6896 12.3764 20.7663 11.6375 17.8311 10.9489C14.5238 10.1725 11.2376 9.12427 7.86673 8.68495C5.77141 8.40938 3.64088 8.747 1.73477 9.65662C1.20904 9.92048 0.169505 10.4278 0 11.0241L2.58228 12.1824C2.87471 11.7846 3.24914 11.4536 3.68046 11.2118C4.11178 10.9699 4.59006 10.8227 5.08316 10.78C6.85104 10.5359 8.47458 11.0801 10.1663 11.4984C14.645 12.607 19.1229 13.7185 23.6002 14.8328L27.8762 15.8883C28.6009 16.1207 29.3428 16.296 30.095 16.4127C29.8696 16.8041 29.5513 17.1346 29.1681 17.3751C28.4205 17.9275 27.639 18.4327 26.8281 18.8878C24.998 19.9518 23.0666 20.86 21.1398 21.7354C19.5159 22.5804 17.7755 23.1818 15.9751 23.5198V23.5601C16.7799 23.4622 17.5758 23.3018 18.3555 23.0805C21.6047 22.4053 24.6973 21.1273 27.4723 19.3132C28.3105 18.7675 29.1185 18.1774 29.8931 17.5454C30.1765 17.3151 30.5903 16.7729 30.9419 16.6825C31.3889 16.6886 31.8291 16.7929 32.2311 16.988C32.635 17.1859 32.827 17.9774 32.9594 18.3685C33.3679 19.7241 33.6437 21.1159 33.7831 22.5244C34.1063 25.5629 34.1265 28.6259 33.8433 31.6685C33.6732 32.8189 33.5814 33.9794 33.5686 35.1422C33.6563 35.6871 33.798 36.222 33.9917 36.7391C34.2565 37.656 34.5068 38.5769 34.7697 39.4945C34.954 39.9562 35.0794 40.4391 35.1431 40.9319C35.1139 41.4549 35.0487 41.9752 34.9478 42.4893C34.7836 43.7261 34.5909 44.963 34.4505 46.2031C34.3843 46.8021 34.0049 47.6873 34.6949 48L35.4616 42.2498H35.502L36.3091 48C36.9454 47.6042 36.6051 46.7572 36.5163 46.1233C36.3687 45.0725 36.2356 44.0204 36.0966 42.9689C35.9727 42.3085 35.8843 41.642 35.8317 40.9721C35.894 40.4236 36.0319 39.8862 36.2416 39.3751C36.4958 38.4985 36.7329 37.6172 36.9845 36.7365C37.1703 36.2297 37.3151 35.7089 37.4175 35.179C37.4231 34.6702 37.3788 34.1621 37.2851 33.6619C37.1891 32.6685 37.1222 31.6631 37.0779 30.6671C36.8803 27.524 36.9725 24.3696 37.3533 21.2433C37.4856 20.1661 37.742 19.1077 38.1174 18.0889C38.2154 17.701 38.4 17.3402 38.6577 17.0335C39.0442 16.8365 39.4667 16.7196 39.8998 16.6898C40.2574 16.641 40.7699 17.2835 41.0294 17.5005C42.0113 18.3088 43.0492 19.047 44.1355 19.7097C46.6738 21.2648 49.4554 22.3861 52.3651 23.027C53.2257 23.2648 54.1017 23.443 54.9871 23.5601V23.5198C53.3178 23.2072 51.7016 22.6602 50.1866 21.8951C48.3711 21.0699 46.5734 20.2117 44.8234 19.2565C43.4575 18.5137 41.8253 17.7037 40.8699 16.449C45.4021 15.1851 50.0211 14.1837 54.5859 13.0399C56.5616 12.5443 58.5383 12.0518 60.5159 11.5623C61.4429 11.3327 62.3559 11.0194 63.2968 10.8611C64.515 10.5855 65.7863 10.6541 66.9676 11.059C67.3415 11.2062 67.6838 11.4232 67.9761 11.6982C68.0959 11.8143 68.282 12.1019 68.464 12.1085C68.7069 12.0613 68.9384 11.9682 69.146 11.8341C69.7461 11.5236 70.3653 11.2512 71 11.0188C70.6022 10.4582 70.0582 10.0165 69.4268 9.74166C67.4928 8.74194 65.2932 8.37057 63.1366 8.67963C61.5605 8.92863 59.9984 9.25889 58.4566 9.66911C55.5214 10.3591 52.5981 11.0966 49.6622 11.7853C47.225 12.3572 44.7982 12.9727 42.3603 13.5426C41.1466 13.7594 39.9476 14.0511 38.7702 14.416C39.0099 14.149 39.2646 13.8957 39.533 13.6574C40.2249 12.9218 40.9235 12.1896 41.577 11.4211C43.5544 9.11027 45.3155 6.62402 46.8383 3.99348C47.3274 3.1465 47.7816 2.2813 48.201 1.39781C48.4506 0.874707 48.7306 0.54553 48.4115 0C48.1247 0.416008 47.8773 0.857673 47.6726 1.3193C47.2163 2.15309 46.737 2.97505 46.2563 3.79499C44.8424 6.2373 43.2698 8.58489 41.5485 10.8228C40.8497 11.7456 40.0683 12.6034 39.2139 13.3856C38.8984 13.739 38.5141 14.0247 38.0843 14.2254C37.5844 14.3744 37.3659 14.0696 36.9951 13.8295C36.6984 13.6362 36.3753 13.476 36.0681 13.3018C35.9045 13.2088 35.6615 13.0049 35.4629 13.0261C34.9047 13.2075 34.3858 13.4922 33.9334 13.8652C33.558 14.129 33.2567 14.4212 32.7601 14.1765C32.2925 13.8975 31.8707 13.5487 31.5093 13.1422C30.8765 12.5235 30.2786 11.8703 29.7183 11.1857C27.7073 8.6263 25.8976 5.91607 24.3054 3.07922C23.922 2.41957 23.538 1.75398 23.1712 1.08312C23.0095 0.699387 22.8013 0.33678 22.5514 0.00330147Z" fill="#1C2577" />
    <path d="M83.3594 10.4708V11.7776H90.6194V41.8358H94.7581V11.7776H101.948V9.16406H83.3594V10.4708Z" fill="#1C2577" stroke="#1C2577" />
    <path d="M110.571 9.22546C110.086 9.24145 109.612 9.37704 109.191 9.62019C108.771 9.86334 108.417 10.2065 108.161 10.6193L107.972 10.9973V18.7007L108.146 19.1142C108.267 19.3861 108.413 19.6463 108.582 19.8913C108.756 20.1235 111.188 22.2436 115.494 25.8941L122.13 31.5354L122.115 35.3904L122.093 39.2454L117.106 39.2671L112.111 39.2816V31.2254H107.972V35.5527C107.923 37.0923 107.952 38.6335 108.059 40.1702C108.29 40.7041 108.705 41.1371 109.228 41.3899C110.143 41.8325 110.071 41.8326 117.36 41.8108L123.981 41.789L124.453 41.6294C125.05 41.4413 125.571 41.0673 125.941 40.562L126.159 40.2065L126.181 35.7868L126.195 31.3672L126.021 30.9391C125.91 30.6713 125.771 30.4158 125.607 30.1765C125.469 29.9951 122.375 27.3302 118.739 24.245L112.11 18.638V11.7658H122.13V19.0991H126.196V15.0984C126.243 13.6686 126.214 12.2373 126.109 10.8106C125.894 10.3165 125.523 9.90597 125.053 9.64169C124.204 9.18455 124.465 9.19907 117.444 9.18456C113.933 9.17466 110.84 9.19314 110.571 9.22546Z" fill="#1C2577" stroke="#1C2577" />
    <path d="M132.215 25.5002V41.8358H147.461V39.2948H136.353V26.5168H146.3V23.9758H136.353V11.7783H147.316V9.16406H132.215V25.5002Z" fill="#1C2577" stroke="#1C2577" />
    <path d="M153.465 25.5002V41.8358H157.531L157.545 34.0163L157.567 26.1969L162.904 34.0163L168.24 41.8358H170.513C171.754 41.8358 172.778 41.814 172.778 41.7922C172.778 41.7705 170.194 37.9663 167.035 33.3342L161.296 24.9198L166.524 17.1801C169.407 12.9254 171.759 9.37512 171.759 9.30256C171.759 9.17063 171.665 9.16471 169.523 9.16471H167.286L162.471 16.4255C159.821 20.4256 157.621 23.7073 157.585 23.7291C157.549 23.7508 157.527 20.4836 157.527 16.469V9.16406H153.465V25.5002Z" fill="#1C2577" stroke="#1C2577" />
    <path d="M178.777 25.5002V41.8358H182.625V31.3375C182.625 21.0859 182.625 20.8101 182.48 19.9605C182.421 19.6652 182.377 19.3671 182.348 19.0673C182.363 19.0528 184.047 23.4817 186.087 28.8961L189.789 38.7486L190.225 38.7703L190.653 38.7922L194.305 29.0775C196.316 23.7344 197.993 19.2831 198.029 19.1887C198.153 18.8477 198.138 19.0871 197.993 19.7989C197.848 20.5106 197.84 20.7429 197.819 31.1759L197.79 41.8338H201.717V9.16406H197.884L197.811 9.36199C197.775 9.47809 196.083 14.2335 194.058 19.9474C192.033 25.6612 190.334 30.5116 190.29 30.7293L190.218 31.1283L190.167 30.7655C190.138 30.5623 188.425 25.6256 186.355 19.7877L182.587 9.16736H178.777V25.5002Z" fill="#1C2577" stroke="#1C2577" />
    <path d="M210.29 9.23335C209.013 9.38573 208.048 10.0467 207.8 10.9326C207.691 11.3245 207.684 39.7058 207.793 40.0977C207.945 40.4668 208.181 40.7961 208.48 41.0603C208.779 41.3246 209.135 41.5167 209.52 41.6221L210.007 41.789L217.283 41.8107C225.167 41.8325 225.109 41.8325 225.981 41.4335C226.493 41.2014 226.912 40.802 227.168 40.3008L227.321 39.9452L227.306 25.4027L227.284 10.8601L227.086 10.5191C226.663 9.91112 226.028 9.48369 225.305 9.32112C224.921 9.20502 224.245 9.19778 217.841 9.18326C213.979 9.17535 210.574 9.19707 210.29 9.23335ZM223.185 25.5267V39.2849H211.858V11.7665H223.185V25.5267Z" fill="#1C2577" stroke="#1C2577" />
</svg>
    